:SAMPLES-PER-SECOND 30
:FULLY-SPECIFIED
:DEGREES
1
root  74.3353 40.4823 -25.1249 175.115 -87.3506 -174.383
RightUpLeg  -3.35832 -8.11532 -5.56325
RightLeg  4.91901 -4.91633 3.2087
RightFoot  0.219831 0.0645275 -0.75258
RightToes  2.91037e-010 0 -3.6325e-017
Spine  1.19736 -0.398125 1.4869
Spine1  3.41802 -0.524646 0.325993
HEad  -1.42845 2.5402 0.22165
LeftShoulder1  0.972153 -1.44129 -12.4792
LeftArm  -18.1209 5.08304 -2.87508
LeftForeArm  3.92756 1.17798 -1.83991
LeftHand  -0.244104 0.0205437 5.32207
RightShoulder  0.476279 -0.63429 9.22833
RightArm  -19.2074 1.36139 2.03786
RightForeArm  6.20832 0.672756 3.29897
RightHand  -0.64333 1.42825 -11.0909
LeftUpLeg  -1.12077 5.22078 3.04907
LeftLeg  2.795 9.05552 -3.89287
LeftFoot  -2.54413 -0.105535 1.54088
LeftToes  -2.38291e-010 7.29328e-011 -2.49822e-011
2
root  74.3278 40.4824 -25.1428 176.843 -87.4295 -176.094
RightUpLeg  -3.19727 -8.03066 -5.60421
RightLeg  4.63489 -5.0735 3.1649
RightFoot  0.0859627 0.0549352 -0.603563
RightToes  2.91037e-010 0 -3.6325e-017
Spine  1.44213 -0.390075 1.51968
Spine1  2.87448 -0.471105 0.152015
HEad  -0.968464 2.37299 0.261184
LeftShoulder1  0.996793 -1.57217 -12.461
LeftArm  -17.8136 5.32208 -2.7911
LeftForeArm  4.17723 1.01021 -1.94887
LeftHand  -0.244104 0.0205437 5.32207
RightShoulder  0.482617 -0.638638 9.49748
RightArm  -19.184 1.31515 1.86593
RightForeArm  6.62328 0.735757 3.2873
RightHand  -0.658664 1.71146 -10.9229
LeftUpLeg  -1.11736 5.19045 2.98883
LeftLeg  2.75502 9.03037 -3.91681
LeftFoot  -2.51836 -0.107348 1.56908
LeftToes  -2.38291e-010 7.29328e-011 -2.49822e-011
3
root  74.3031 40.4854 -25.1741 178.386 -87.5119 -177.637
RightUpLeg  -2.8245 -7.99908 -5.65464
RightLeg  4.053 -5.16881 3.20432
RightFoot  -0.0331004 0.0446382 -0.44081
RightToes  2.91037e-010 0 -3.6325e-017
Spine  1.64659 -0.380485 1.77984
Spine1  2.29393 -0.357912 -0.310446
HEad  -0.533161 2.22324 0.367779
LeftShoulder1  1.02149 -1.71067 -12.4127
LeftArm  -17.4717 5.63675 -2.72554
LeftForeArm  4.49212 0.905905 -2.04899
LeftHand  -0.244104 0.0205437 5.32207
RightShoulder  0.541936 -0.366625 9.97988
RightArm  -18.9452 0.979348 1.41304
RightForeArm  6.93337 0.829581 3.32882
RightHand  -0.664836 2.05244 -10.5387
LeftUpLeg  -1.04499 5.17251 2.96353
LeftLeg  2.67299 8.98141 -3.94567
LeftFoot  -2.4833 -0.107086 1.56501
LeftToes  -2.38291e-010 7.29328e-011 -2.49822e-011
4
root  74.2665 40.4963 -25.2099 178.11 -87.4284 -177.351
RightUpLeg  -2.45683 -8.02542 -5.63186
RightLeg  3.43219 -5.0397 3.33394
RightFoot  0.0232602 0.0434706 -0.406328
RightToes  2.91037e-010 0 -3.6325e-017
Spine  1.34253 -0.349866 2.05594
Spine1  2.50165 -0.266233 -0.620372
HEad  -0.687498 2.36596 0.412889
LeftShoulder1  1.02132 -1.67754 -12.5462
LeftArm  -17.3527 5.82354 -2.68586
LeftForeArm  4.44088 1.06664 -2.04851
LeftHand  -0.244104 0.0205437 5.32207
RightShoulder  0.612732 0.0141221 10.1482
RightArm  -18.5761 0.665445 1.15133
RightForeArm  6.46881 0.922714 3.45434
RightHand  -0.646161 1.9073 -10.4461
LeftUpLeg  -0.933309 5.19129 3.03349
LeftLeg  2.56681 9.04963 -3.94109
LeftFoot  -2.42511 -0.103178 1.50424
LeftToes  -2.38291e-010 7.29328e-011 -2.49822e-011
5
root  74.2343 40.5085 -25.2499 177.423 -87.1335 -176.589
RightUpLeg  -2.32071 -7.9694 -5.51997
RightLeg  3.01131 -4.80002 3.41536
RightFoot  0.188216 0.0465732 -0.432828
RightToes  2.91037e-010 0 -3.6325e-017
Spine  0.759167 -0.272132 2.08648
Spine1  3.142 -0.209963 -0.545312
HEad  -1.20799 2.69107 0.381823
LeftShoulder1  1.0063 -1.53866 -12.8088
LeftArm  -17.2986 6.01273 -2.6335
LeftForeArm  4.11439 1.36642 -2.00988
LeftHand  -0.244104 0.0205437 5.32207
RightShoulder  0.634245 0.188121 9.87904
RightArm  -18.3969 0.661777 1.33783
RightForeArm  6.05049 0.984343 3.53907
RightHand  -0.644468 1.69652 -10.708
LeftUpLeg  -0.85783 5.22432 3.13491
LeftLeg  2.42388 9.32231 -3.91825
LeftFoot  -2.32301 -0.100609 1.4643
LeftToes  -2.38291e-010 7.29328e-011 -2.49822e-011
6
root  74.217 40.5144 -25.2936 177.702 -86.791 -176.749
RightUpLeg  -2.41689 -7.84572 -5.38292
RightLeg  2.87281 -4.59923 3.38325
RightFoot  0.280788 0.0472385 -0.419902
RightToes  2.91037e-010 0 -3.6325e-017
Spine  0.412914 -0.169257 1.90378
Spine1  3.45483 -0.156152 -0.31297
HEad  -1.56212 2.89069 0.364441
LeftShoulder1  0.99252 -1.43413 -12.9615
LeftArm  -17.1934 6.31031 -2.567
LeftForeArm  3.91215 1.53863 -1.99005
LeftHand  -0.244104 0.0205437 5.32207
RightShoulder  0.612942 0.121375 9.57742
RightArm  -18.5564 0.83236 1.66459
RightForeArm  6.6679 1.00635 3.47355
RightHand  -0.691787 2.15558 -10.8214
LeftUpLeg  -0.847481 5.26192 3.20773
LeftLeg  2.27305 9.63458 -3.92665
LeftFoot  -2.21802 -0.100708 1.46585
LeftToes  -2.38291e-010 7.29328e-011 -2.49822e-011
7
root  74.2079 40.5155 -25.3353 178.338 -86.626 -177.302
RightUpLeg  -2.52276 -7.76627 -5.30138
RightLeg  2.88212 -4.5281 3.3391
RightFoot  0.247701 0.0466867 -0.390272
RightToes  2.91037e-010 0 -3.6325e-017
Spine  0.392081 -0.108847 1.69316
Spine1  3.40618 -0.118009 -0.181537
HEad  -1.79891 2.90542 0.382501
LeftShoulder1  0.976417 -1.3557 -12.951
LeftArm  -17.1718 6.56426 -2.49723
LeftForeArm  3.94967 1.48238 -1.96406
LeftHand  -0.244104 0.0205437 5.32207
RightShoulder  0.583781 -0.0523869 9.58481
RightArm  -18.8922 1.01734 1.78995
RightForeArm  7.6282 0.972016 3.33356
RightHand  -0.743734 2.85631 -10.6698
LeftUpLeg  -0.848926 5.30042 3.25803
LeftLeg  2.15712 9.74759 -3.9649
LeftFoot  -2.14809 -0.0977458 1.41979
LeftToes  -2.38291e-010 7.29328e-011 -2.49822e-011
8
root  74.1941 40.5165 -25.3689 178.349 -86.6889 -177.331
RightUpLeg  -2.46915 -7.78767 -5.28626
RightLeg  2.90463 -4.56432 3.3767
RightFoot  0.169044 0.049131 -0.413145
RightToes  2.91037e-010 0 -3.6325e-017
Spine  0.429635 -0.133226 1.52366
Spine1  3.44439 -0.156761 -0.0989483
HEad  -2.04214 2.92772 0.434241
LeftShoulder1  0.951044 -1.23209 -12.9338
LeftArm  -17.2759 6.61609 -2.42677
LeftForeArm  4.04149 1.34073 -1.92491
LeftHand  -0.244104 0.0205437 5.32207
RightShoulder  0.553205 -0.260082 9.73805
RightArm  -19.2211 1.29732 1.81333
RightForeArm  7.59513 0.78815 3.23661
RightHand  -0.729526 2.68114 -10.6945
LeftUpLeg  -0.803983 5.32051 3.30795
LeftLeg  2.13249 9.65309 -3.96107
LeftFoot  -2.12383 -0.0913781 1.3208
LeftToes  -2.38291e-010 7.29328e-011 -2.49822e-011
9
root  74.1716 40.5163 -25.3948 177.539 -86.8326 -176.628
RightUpLeg  -2.29165 -7.84492 -5.28237
RightLeg  2.93151 -4.63059 3.45751
RightFoot  0.0982422 0.0546213 -0.493069
RightToes  2.91037e-010 0 -3.6325e-017
Spine  0.489182 -0.180564 1.38973
Spine1  3.5275 -0.231377 0.0297611
HEad  -2.24832 2.86693 0.421556
LeftShoulder1  0.929961 -1.12486 -12.9396
LeftArm  -17.3358 6.52487 -2.40973
LeftForeArm  4.16239 1.27822 -1.91707
LeftHand  -0.244104 0.0205437 5.32207
RightShoulder  0.526767 -0.423985 9.79164
RightArm  -19.4513 1.56018 1.86132
RightForeArm  6.79126 0.478972 3.1819
RightHand  -0.666717 1.73063 -11.0231
LeftUpLeg  -0.701565 5.32819 3.36653
LeftLeg  2.20487 9.50737 -3.89481
LeftFoot  -2.15083 -0.0900744 1.30054
LeftToes  -2.38291e-010 7.29328e-011 -2.49822e-011
10
root  74.147 40.514 -25.4188 176.691 -86.9124 -175.898
RightUpLeg  -2.14158 -7.86879 -5.25563
RightLeg  3.01785 -4.6621 3.4965
RightFoot  -0.00483981 0.0607392 -0.596258
RightToes  2.91037e-010 0 -3.6325e-017
Spine  0.688372 -0.159746 1.33809
Spine1  3.35336 -0.216805 0.0735963
HEad  -1.91369 2.59125 0.447235
LeftShoulder1  0.925358 -1.12673 -12.8225
LeftArm  -17.3554 6.39845 -2.54217
LeftForeArm  4.42253 1.27808 -1.92308
LeftHand  -0.244104 0.0205437 5.32207
RightShoulder  0.527948 -0.424488 9.83701
RightArm  -19.4908 1.43246 1.77188
RightForeArm  6.42803 0.309712 3.1411
RightHand  -0.636354 1.26908 -11.2196
LeftUpLeg  -0.575382 5.36206 3.4356
LeftLeg  2.28688 9.37991 -3.85164
LeftFoot  -2.21869 -0.0940286 1.36201
LeftToes  -2.38291e-010 7.29328e-011 -2.49822e-011
